<svg version="1.0" xmlns="http://www.w3.org/2000/svg" width="1066.667" height="1066.667" viewBox="0 0 800 800"><path d="M676 91.2c-3.8 1.7-7.4 3.1-22 8.8-7.4 2.9-13.9 5.7-14.4 6.2-.6.4-1.7.8-2.5.8-.9.1-3.4.9-5.6 2-2.2 1.1-4.4 1.9-4.8 2-.5 0-2.3.7-4 1.4-1.8.8-19.2 7.8-38.7 15.6-19.5 7.7-36.4 14.5-37.5 15-1.1.5-14.6 5.9-30 12s-28.9 11.5-30 12c-1.1.5-16.4 6.6-34 13.5-17.6 7-33.3 13.3-34.9 14.1-1.6.8-3.3 1.4-3.8 1.4s-2.8.8-5.1 1.9c-2.3 1-9.6 4-16.2 6.6-6.6 2.6-12.9 5.1-14 5.5-1.1.5-5.6 2.3-10 4.1-4.4 1.7-9.3 3.7-11 4.4-10.3 4.2-20.1 7.9-20.7 7.7-.5-.1-.8.3-.8.8 0 .6-.7 1-1.6 1-.9 0-3 .6-4.7 1.4-1.8.8-9.5 4-17.2 7.1-7.7 3-14.9 5.9-16 6.4-1.1.5-4.7 1.9-8 3.1-3.3 1.3-7.6 3-9.5 3.9-1.9.8-4.3 1.6-5.3 1.8-1 .2-2.8.9-4 1.7-1.2.8-4 1.9-6.2 2.6-2.2.7-4.9 1.9-6 2.5-1.1.7-3.3 1.6-5 2-3.8 1-3.3.9-8 3-5.5 2.4-8.8 3.8-10 4-.5.2-7.7 3.1-16 6.5-8.2 3.4-15.4 6.2-16 6.4-.5.1-2 .8-3.3 1.4-1.2.7-2.2 1-2.2.6 0-.3-.6-.2-1.2.3-1.1.8-17.1 7.5-18.8 7.9-.3 0-1.4.4-2.5.9-9.8 4-36.2 14.7-37 14.9-.5.2-1.9.7-3 1.1-1.1.4-5.8 2.3-10.5 4.2-11.5 4.6-14.5 6.2-16 8.7-2.4 3.7-46 91.6-46 92.6 0 .6-.4 1-1 1-.5 0-.9.3-.8.7.2 1.1-6.4 14.6-7.5 15.4-.5.3-.8.9-.7 1.3.1.4-7.5 16.2-16.9 35.1-9.4 18.9-17.1 34.9-17.1 35.4s-.3 1.1-.7 1.3c-.5.1-4.6 8-9.2 17.5C.3 536.6-.2 538.1.4 542.2c1.1 7.3 6.2 11.1 17.6 13.2 1.4.2 5.9 1.1 10 2 4.1.8 8.7 1.7 10.3 2 1.5.3 3.5.7 4.5 1 .9.3 3.4.7 5.4 1 2.1.2 4.1.7 4.5.9.4.3 2.4.8 4.3 1.1 5.7.9 9 1.6 18 3.6 4.7 1 10.1 2.2 12 2.5 1.9.3 4.2.8 5 1 .8.2 2.9.7 4.5 1 1.7.2 4.1.7 5.5 1 1.4.3 3.6.8 5 1.1 1.4.2 8.1 1.6 15 3 6.9 1.5 13.6 2.8 15 3.1 2.7.5 26.6 5.3 29 5.8 1.5.4 19.1 3.9 24 4.9 1.4.3 5.7 1.2 9.5 2 3.9.8 8.6 1.8 10.5 2.1 1.9.3 5.1 1 7 1.5 1.9.5 4.9 1.1 6.5 1.4 2.7.4 9 1.7 15.5 3.1 1.4.3 3.9.8 5.5 1 1.7.3 3.7.8 4.5 1 .8.2 2.7.6 4.3.9 1.5.3 3.5.7 4.5 1 .9.3 3.3.8 5.2 1 1.9.3 7.8 1.5 13 2.6 5.2 1.2 11.8 2.5 14.5 3.1 2.8.5 6.1 1.1 7.5 1.4 1.4.3 4.8.9 7.5 1.5 2.8.6 5.9 1.2 7 1.4 1.1.3 7.6 1.6 14.5 3.1 6.9 1.4 13.8 2.8 15.4 3 1.5.2 3.7.7 4.8 1.1 1.1.3 3 .7 4.1.9 1.2.1 3.3.5 4.7.9 1.4.3 3.6.8 5 1 1.4.3 3.4.7 4.5.9 1.1.2 3.8.8 6 1.2 2.2.5 4.5.9 5 1 3 .7 37.4 7.7 39.5 8.1 1.4.3 6.7 1.4 11.8 2.4 5.1 1.1 10.9 2.3 12.9 2.6 2 .3 4.6 1 5.9 1.4 1.2.5 2.4.7 2.7.4.2-.2 1.6 0 3 .5s4.5 1.3 6.8 1.6c2.4.4 8.2 1.5 12.9 2.5 4.7 1 9.9 2.1 11.5 2.4 4.2.8 7.6 1.5 10.5 2.1 1.4.4 3.6.8 5 1.1 1.4.2 5.7 1.1 9.5 1.9 3.9.8 8.1 1.6 9.5 1.9 3.9.7 17.9 3.6 24.3 5.1 3.1.7 6 1.4 6.2 1.4.3.1.6.1.8.2.1 0 1.3.2 2.7.4 1.4.2 3.6.6 5 .9 4.8 1 7.5 1.6 10.5 2.2 1.7.4 4 .8 5.2 1 1.1.1 2.9.5 4 .8 1 .3 3.2.8 4.8 1.1 1.7.2 4.1.7 5.5 1 5 1.1 12.6 2.6 16 3.1 1.9.3 3.8.8 4.1 1 .4.2 2.4.6 4.5 1 2.1.3 6.7 1.2 10.3 2 3.6.9 8.2 1.7 10.1 2 1.9.3 4.2.8 5 1.1.8.3 2.2.7 3 .8.8.2 3.3.6 5.5.9 2.2.4 4.8.9 5.7 1.2 3 .9 6.2 1.5 9.6 1.9 1.8.2 4.3.7 5.5 1.1 1.2.4 3.1.8 4.2 1 1.9.3 25 5 29 6 1.1.3 3.1.7 4.5.9 2.6.4 3.4.6 13 2.6 3 .7 6.4 1.3 7.5 1.5 1.1.2 5.2 1 9 1.8 3.9.8 8.1 1.7 9.5 2 1.4.2 4.5.9 7 1.5 2.5.5 5.6 1.2 7 1.4 1.4.3 7.2 1.5 13 2.7 11.2 2.4 18.9 2.2 21.5-.4.8-.8 1.8-1.6 2.3-1.8.4-.1 1.7-1.7 2.9-3.3 1.7-2.4 2-4.1 1.7-8.5-.2-3-.6-6.6-.9-8-.3-1.4-.7-3.7-1-5.3-.3-1.5-.8-4.2-1.1-6-.3-1.7-.7-4.1-.8-5.2-.2-1.1-.6-3.4-.9-5-.3-1.7-.9-4.6-1.1-6.5-.3-1.9-.7-4.4-1-5.5-.2-1.1-.7-4.2-1-6.8-.4-2.7-1-5.9-1.2-7-.3-1.2-.7-3.3-.9-4.7-.2-1.4-1.8-10.8-3.5-21s-3.3-20.1-3.6-22c-.2-1.9-.8-5.5-1.3-8-.6-2.5-1.5-7.9-2.2-12-.6-4.1-1.3-8.4-1.5-9.5-.2-1.1-.6-3.4-.9-5-.3-1.7-.7-4.4-1-6-.3-1.7-.8-4.6-1.1-6.5-.3-1.9-1.4-8.5-2.4-14.5-1-6.1-2.2-12.8-2.5-15-.9-5-1.3-7.3-1.9-10.5-.2-1.4-.9-5.7-1.5-9.5-.6-3.9-1.3-8.1-1.6-9.5-.3-1.4-.8-4.1-1.1-6-.2-1.9-.7-4.6-.9-6-.9-5.1-1.8-10.5-3-18.5-.3-1.7-.9-5.3-1.4-8-1.7-9.1-3.6-20.3-4.6-26.5-.2-1.4-2-12.2-4-24s-3.8-22.6-4-24c-.4-2.4-4-23.6-5-29.5-.3-1.7-.8-4.1-1-5.5-.3-1.4-.8-4.2-1.1-6.4-.3-2.1-.8-4.8-1-6-.6-2.4-1.1-5.5-1.8-10.6-.4-3.3-.9-6.3-2.2-13.5-.3-1.7-.8-4.4-1-6-.9-5.8-1.1-7-1.8-10.5-.4-1.9-.9-4.6-1.1-6-.5-3.8-1.5-9.9-2.5-15.5-.5-2.8-1.2-6.8-1.5-9-.9-5.3-1.5-9-2.5-14.5-.5-2.4-.6-4.8-.4-5.2.3-.5.2-.8-.3-.8-.4 0-.8-1-.9-2.3 0-1.2-.4-4-.7-6.2-2.1-11.5-3.7-21.4-4.2-25-.3-2.2-1-6-1.5-8.5s-1.2-6.1-1.5-8c-.2-1.9-.7-4.6-.9-6-.2-1.4-1-5.9-1.6-10-.7-4.1-1.4-8.4-1.6-9.5-1.1-5.6-2.6-14.4-2.9-17.5-.3-1.9-.7-4.8-1.1-6.5-.4-1.6-.8-3.9-1-5-.2-1.1-.5-3.4-.8-5-.3-1.7-.8-4.8-1.1-7-.3-2.2-.8-5.1-1-6.5-.3-1.4-.8-4.1-1.1-6-.7-4.4-3-9.4-5.2-11.3-4-3.4-13.2-4.7-18.2-2.5zm-18.9 41.5c-3 10-6.4 21-6.9 21.8-.4.5-.7 1.5-.8 2-.2 1.2-7.2 24.2-8.1 26.5-.3.8-.8 2.1-1 2.7-.1.7-.5 1.9-.6 2.5-.2.7-.7 2-1 2.8-.3.8-2.4 7.6-4.7 15-2.3 7.4-4.4 14.2-4.7 15-.3.8-.7 1.9-.8 2.5-.4 1.4-10.5 33.7-11.2 35.5-.3.8-.8 2.1-1 2.7-.1.7-.5 1.9-.6 2.5-.2.7-.7 2-1 2.8-.3.8-2.4 7.6-4.7 15-2.3 7.4-5 16-6 19s-4 12.2-6.5 20.5c-2.6 8.2-6.3 19.9-8.2 26-1.9 6-4.1 13.2-4.9 16-.9 2.7-1.9 5.9-2.4 7-.5 1.1-1.2 3.1-1.5 4.5-1.6 6.1-10.8 34.6-11.4 35.2-.3.3-2.4.9-4.6 1.2-5.2.7-8.3 1.4-9.3 1.9-.4.3-2.3.8-4.3 1.1-2 .3-9.2 1.7-16 3.2-6.8 1.4-13.5 2.8-14.9 3-1.4.2-4.6.9-7.1 1.5-2.6.6-5.3 1.2-6 1.3-.8.2-3 .6-4.9 1-1.9.4-4.4.9-5.5 1.1-1.1.2-2 .4-2 .5 0 .1-1.1.3-2.5.4-1.4.2-3.5.6-4.7 1-1.3.4-3.5 1-5 1.2-1.6.3-9.1 1.9-16.8 3.5-7.7 1.6-15.1 3.1-16.5 3.4-1.4.2-5.6 1.1-9.5 2-3.8.8-8.1 1.7-9.5 2-1.4.3-3.4.7-4.5.9-8.4 1.8-18.4 3.9-20.5 4.3-1.4.2-7.7 1.5-14 2.9-19.3 4.2-18.8 4.2-27.7-.9-4.3-2.4-17.9-10.1-30.3-16.9-23.1-12.9-78.8-43.9-85-47.5-4.5-2.6-11.5-6.5-21.5-12-4.4-2.4-8.7-4.8-9.5-5.3-.8-.5-9.1-5.2-18.5-10.3-9.3-5.2-18.8-10.5-21-11.7-2.2-1.2-7.4-4.1-11.5-6.3s-8.3-4.5-9.2-5.2c-1.4-.9 2.9-3 25-11.9 14.7-5.9 27.4-10.9 28.2-11.1 1.3-.3 13.3-5.1 22.5-9 7.9-3.4 35.3-14.1 36.7-14.4.6-.2 6.2-2.5 14.3-6 1.1-.5 7.2-3 13.5-5.4 6.3-2.5 12.9-5.1 14.5-5.8 1.7-.7 3.2-1.3 3.5-1.4.3-.1 1.8-.7 3.3-1.3 1.6-.7 3-1.2 3.1-1.2.2 0 2.1-.8 4.2-1.7 2.2-.9 4.4-1.8 4.9-1.9.6-.2 12.3-4.9 26-10.4 13.8-5.6 25.5-10.3 26-10.4.6-.2 2.1-.8 3.5-1.3 1.4-.6 5-2.1 8-3.2 3-1.2 6.4-2.6 7.5-3.1 1.1-.5 9-3.7 17.5-7 8.5-3.4 16.9-6.7 18.5-7.5 1.7-.7 8-3.2 14-5.5 6.1-2.3 12.4-4.8 14-5.6 1.7-.7 8.9-3.6 16-6.5 7.2-2.8 14.1-5.6 15.5-6.2 1.4-.5 3-1.1 3.5-1.3.8-.2 47.9-18.9 55-21.9 1.1-.5 2.2-.9 2.5-1 .8-.3 8.9-3.6 19-7.8 1.4-.5 3-1.1 3.5-1.3.6-.1 15.2-5.9 32.5-12.9s32-12.8 32.5-13c.6-.1 2.6-.9 4.5-1.7 7.8-3.4 8-3.4 7.1-.1zm21.9 45.5l1.8 10.8c.6 3.6 1.4 8.2 1.8 10.4.3 2.1.8 4.8 1 6 .5 2.5 1.1 5.7 1.8 10.6.3 1.9.8 4.6 1.1 6 .3 1.4.8 4.1 1 6 .3 1.9.7 4.6 1 6 .3 1.4.8 4.3 1 6.4.3 2.2 1 5.9 1.5 8.3.6 2.3 1 4.6.9 5-.1.5 0 1 .1 1.3.3.8.7 3.2 1.4 7.5 1.2 8.1 1.8 12 2.2 14 .2 1.1.7 3.3.9 5 1.3 7.2 2.5 14.2 2.9 17 .6 3.9 3.6 21.2 4.1 24.5.3 1.4 1.2 7 2.1 12.5.8 5.5 1.8 11.1 2 12.5.3 1.4.7 3.8 1 5.5.3 1.6.9 5.5 1.4 8.5.5 3 1.2 7.3 1.6 9.5.3 2.2 1 6 1.5 8.5s1.1 6.1 1.3 8c.3 1.9.8 5.1 1.2 7 .9 5 1.3 7.2 1.7 10 .2 1.4.7 3.8 1 5.5.8 3.6 1.9 11 2.3 14.5.1 1.4.3 2.5.4 2.5.1 0 .3.9.5 2 .3 2.4 2.3 14.3 2.9 17 .2 1.1.9 5.4 1.6 9.5.6 4.1 1.4 8.6 1.6 10 .2 1.4.7 4.1 1 6 .3 1.9 1.2 7.1 1.9 11.5.8 4.4 1.7 9.8 2 12 .3 2.2 1 6.2 1.5 9 .5 2.7 1.2 6.3 1.5 8 .2 1.6.7 4.1.9 5.5.3 1.4.8 4.3 1.1 6.5.3 2.2.7 5.1 1 6.5 1.1 6 1.6 8.7 2 12 .3 1.9.9 5.7 1.5 8.5 1 5.3 2 11.3 2.5 15.5.2 1.4.7 4.1 1.1 6 .8 4.2 1.4 7.8 1.8 10.5.3 2.3 1.6 10 2.2 13 .3 1.1.7 3.8 1 6 .7 5.4 1.1 7.6 1.8 10.5.3 1.4.8 4.3 1.1 6.4.5 3.7.8 5.1 2 11.2.5 2.2.4 2.4-.7 1.3-1.7-1.8-6.5-8.2-10.7-14.4-1.9-2.8-4-5.5-4.6-6.1-.5-.6-2.8-3.7-5-7-2.2-3.2-4.6-6.5-5.3-7.2-.6-.7-3.3-4.4-5.9-8-2.6-3.7-5.1-6.9-5.5-7-.5-.2-.8-1-.8-1.7s-.4-1.5-.8-1.7c-.4-.2-2.3-2.6-4.2-5.3-1.9-2.8-3.8-5.2-4.1-5.5-.8-.7-29.2-39.8-30.4-41.8-.5-.9-1.2-1.9-1.5-2.2-.3-.3-3-3.9-6-8s-5.8-7.7-6.2-7.8c-.5-.2-.8-.8-.8-1.2 0-.8-10.6-15.6-14.5-20.3-.8-.9-1.5-2.1-1.5-2.6s-.3-1.1-.8-1.3c-.4-.1-6.9-8.9-14.5-19.3-7.6-10.5-14.4-19.9-15.3-21-10.9-14.3-16.3-22.4-16-24.1.2-1 1.1-3.9 1.9-6.4 2.9-8.7 9-28.5 8.8-28.5-.2 0 .4-1.8 1.3-4 .8-2.2 4.5-13.5 8.1-25 3.6-11.6 7.5-23.8 8.6-27.2 1.1-3.5 2.2-7.1 2.4-8 .2-1 .9-3.2 1.5-4.8.7-1.7 2-5.7 3-9s3.2-10.5 5-16c1.7-5.5 3.3-10.5 3.4-11 .2-.6.6-1.7.9-2.5.5-1.4 7.5-23.7 11.9-38 1.1-3.6 2.9-9.2 4-12.5 1.1-3.3 2.1-6.7 2.3-7.5.2-.8 3.3-10.7 6.9-22 3.6-11.3 6.6-21.1 6.6-21.9 0-2.7 1.3-.1 2 4.1zM143.3 357.6c3.2 1.9 6 3.4 6.2 3.4.2 0 3 1.5 6.2 3.4 6.3 3.6 12.6 7.1 21.3 11.9 3 1.6 8.4 4.7 12 6.7 3.6 2.1 9.2 5.2 12.5 7 3.3 1.8 11 6.1 17 9.5 14.1 7.9 19.8 11.1 26.1 14.6 11.7 6.3 24.1 13.3 26.4 15 1.4.9 3 1.8 3.5 1.9 1 .2 5.1 2.5 15.8 8.6 3.2 1.9 6.3 3.4 6.8 3.4s.9.3.9.8c0 .4 1.5 1.4 3.3 2.1 1.7.8 7.3 3.8 12.2 6.6 5 2.8 10.3 5.7 11.8 6.5 2.5 1.2 2.6 1.5 1 2.1-1 .4-3.4.9-5.3 1.2-1.9.3-5.5 1-8 1.5-2.5.6-5.6 1.3-7 1.6-1.4.3-3.6.7-5 1-1.4.3-4.1.9-6 1.2-1.9.3-6 1.2-9 1.9-3 .8-6.8 1.6-8.5 1.8-1.6.3-5 1-7.5 1.6-2.5.5-6 1.3-7.9 1.6-1.9.3-3.7.8-4 1-.4.2-2.7.6-5.1 1-4.7.7-5 .8-9 1.8-2.3.6-3.6.9-11.5 2.4-4.7.8-6 1.1-6 1.3 0 .1-.9.3-2 .5-3 .4-8.4 1.5-13.5 2.6-6.8 1.6-8.2 1.9-11.5 2.3-1.6.2-3.7.7-4.5 1-.8.3-2.6.7-4 1-1.4.2-4.7.9-7.5 1.6-2.7.6-6.5 1.3-8.4 1.6-1.8.2-3.7.6-4.1.9-.4.3-2.5.7-4.5 1.1-4.1.6-3.9.6-14.5 2.9-9.4 2.1-9.6 2.1-15 3.1-5.1.9-5.9 1.1-6.2 1.4-.2.1-1.2.3-2.3.5-3.7.6-7.9 1.5-22 4.4-7.7 1.7-21.6 4.6-31 6.5-9.3 2-19.9 4.2-23.5 5-3.6.8-6.8 1.2-7.1 1-.4-.2 5.8-13.5 13.7-29.4 7.9-16 14.4-29.3 14.4-29.6 0-.3 1-2 2.2-3.7 1.3-1.8 2.2-3.3 2-3.5-.1-.1 8.2-17.2 18.5-38 10.3-20.7 18.8-37.9 18.8-38.2.1-.3 3.2-6.6 7-14.1l6.8-13.7 4.6 2.6c2.5 1.3 7.2 4 10.4 5.8zm443.4 96.6c6.5 8.9 13.2 18 14.8 20.4 5.3 7.5 15.9 21.9 16.4 22.4.4.3 2.2 2.7 4.1 5.5 1.9 2.7 3.8 5.1 4.2 5.3.4.2.8 1 .8 1.7s.3 1.5.8 1.7c.6.2 13.2 17.1 19.2 25.8.8 1.2 2.1 2.9 2.8 3.8.7.9 7.8 10.7 15.8 21.7s15.5 21.3 16.7 22.9c1.2 1.5 5 6.7 8.5 11.5 3.4 4.7 8.8 12.1 12 16.5 3.1 4.3 6.2 8.5 6.7 9.4.6.9 1.8 2.5 2.8 3.6 1 1.2 2.5 3.3 3.3 4.8.8 1.6 1.9 2.8 2.4 2.8.6 0 1 .5 1 1.1 0 .9 4.4 7 8.9 12.5 1.3 1.6.1 2.6-1.5 1.3-.7-.6-2.8-1.8-4.6-2.8-6.9-3.6-19.3-10.4-20.3-11.1-.5-.4-3-1.9-5.5-3.2-2.5-1.4-6.1-3.4-8-4.5-1.9-1.1-7.1-3.9-11.5-6.3-4.4-2.3-8.4-4.6-9-5-.9-.6-4.4-2.6-19-10.6-2.2-1.2-13.7-7.5-25.5-14.1s-23.7-13.3-26.5-14.8c-2.7-1.5-8.4-4.7-12.5-7-4.2-2.4-10.7-6-14.5-8.1-3.9-2.1-9.2-5-12-6.6-2.7-1.6-5.8-3.1-6.7-3.4-1-.4-1.8-1-1.8-1.5s-.5-.9-1.1-.9c-1 0-6.2-2.8-22.9-12.3-1.9-1.1-5.3-3-7.5-4.2-2.2-1.2-10.1-5.5-17.5-9.7-20.5-11.5-22.9-12.8-31.5-17.5-4.4-2.4-8.7-4.8-9.5-5.3-.8-.5-3.5-2-6-3.3-2.5-1.3-11.9-6.6-21-11.7-9.1-5.2-17.5-9.9-18.8-10.6-2.6-1.3-1.8-2.3 2.5-2.9 4.3-.6 8.4-1.5 12.8-2.7 2.2-.5 5.6-1.2 7.5-1.4 1.9-.3 6.1-1.2 9.3-2 3.2-.8 6.2-1.2 6.7-.9.6.3 1 .2 1-.2 0-.5 1-1 2.3-1.1 2.5-.3 6.2-1 6.2-1.2 0-.1.9-.3 2-.5 2.3-.3 6.9-1.2 10.5-2.1 1.4-.3 3.4-.7 4.5-.9 1.1-.2 5.3-1 9.2-1.9 4-.9 8.5-1.8 10-2.1 1.6-.2 8.9-1.8 16.3-3.4 7.4-1.6 14.6-3.2 16-3.5 1.4-.2 5-1 8-1.6 3-.6 6.6-1.3 8-1.6 1.4-.2 3.6-.7 5-1 1.4-.3 3.4-.8 4.5-1 12.1-2.7 19-4.2 19.2-4.3.1-.1 5.5 7.2 12 16.1zm-206.8 35.3c7.3 4.1 13.7 7.5 14.2 7.5s.9.5.9 1.1c0 .5.4.8.9.5.5-.3 1.4.1 2.1.9.7.8 1.6 1.5 2.1 1.5.4 0 3.4 1.5 6.6 3.4 5.9 3.4 11.7 6.6 20.8 11.6 2.8 1.5 16.5 9.1 30.5 17 14 7.8 28.4 15.8 32 17.8 7.6 4.1 12 6.6 17.5 9.7 12 6.9 15.3 8.7 17.8 9.8 1.5.6 2.7 1.5 2.7 1.9 0 .4.5.8 1.2.8.6 0 4.5 2 8.7 4.4 8.8 5 15.1 8.5 24.1 13.4 3.6 2 7.7 4.4 9.3 5.4 1.5 1.1 2.7 1.6 2.7 1.3 0-.3 1.2.2 2.8 1.3 1.5 1 5.6 3.5 9.2 5.4 3.6 2 10.8 6 16 8.9 5.2 3 10.9 6.1 12.5 6.9 1.7.8 3.2 1.7 3.5 2.1.3.3 2.1 1.3 4 2.2 1.9 1 6.2 3.3 9.5 5.2 3.3 1.9 8.3 4.7 11 6.1 2.8 1.5 10.1 5.6 16.3 9.1 6.3 3.6 13.2 7.5 15.5 8.7 17.6 9.6 19.6 10.8 16.1 10.1-1-.2-4.1-.9-6.9-1.4-2.7-.6-13.8-2.8-24.5-5s-20.8-4.3-22.5-4.6c-1.6-.4-5-1.1-7.5-1.5-2.5-.5-9.9-2-16.5-3.4s-13.1-2.7-14.5-3c-1.4-.2-5.9-1.1-10-2-4.1-.8-8.6-1.7-10-2-9.1-1.7-23.3-4.7-23.9-5-.3-.3-2.7-.7-5.1-1.1-2.5-.3-6.5-1.1-9-1.7-5.2-1.1-6.7-1.4-13.5-2.8-2.7-.5-6.1-1.2-7.5-1.5-1.4-.3-3.5-.7-4.7-1-1.3-.3-3.5-.7-5-1-3.6-.7-12.1-2.4-15.3-3-7.4-1.6-11.8-2.5-14-3-1.4-.3-3.8-.8-5.5-1.1-1.6-.3-4.8-.9-7-1.4-2.2-.5-5.4-1.1-7-1.4-1.7-.3-11.8-2.4-22.5-4.6-22-4.6-28.4-5.9-32-6.5-1.4-.2-11.1-2.2-21.6-4.4-10.5-2.2-20.2-4.2-21.5-4.5-9.6-1.9-13.8-2.7-16.4-3.2-1.6-.2-3.9-.8-5-1.1-1.1-.3-2.9-.7-4-.9-1.1-.1-8.5-1.6-16.5-3.3-8-1.7-15.7-3.2-17.3-3.5-1.5-.3-3.5-.7-4.5-1-1.9-.6-5.7-1.3-11.2-2.2-1.9-.3-4.3-.7-5.2-1-.9-.3-2.7-.7-4-.9-2-.4-6.8-1.4-14.3-2.9-1.1-.3-5.4-1.2-9.5-2.1-4.1-.9-8.6-1.8-10-2-1.4-.2-3.8-.6-5.5-1-4.5-1-16.8-3.6-18.5-3.9-7.3-1.5-9.7-2-11-2.3-.8-.2-2.6-.5-4-.8-1.4-.2-5.8-1.1-9.7-1.9-4-.9-8.5-1.8-10-2.1-3.4-.6-6.3-1.2-12.8-2.5-2.7-.6-6-1.2-7.3-1.5-1.3-.2-3.1-.7-4-.9-1-.3-3.1-.8-4.7-1-3.9-.6-7.4-1.3-16-3.2-3.8-.9-8.8-1.8-10.9-2-2.2-.3-4.4-.8-4.8-1-.5-.3-2.1-.7-3.6-1-1.5-.2-4.7-.9-7.2-1.4-2.5-.5-5.8-1.2-7.5-1.5-1.6-.4-3.4-.7-4-.9-.5-.1-4.3-.8-8.3-1.6-6.7-1.2-7.8-1.6-6-2 .4-.1 2.2-.6 4-1.1 3.1-.9 4.7-1.2 12.2-2.5 1.6-.3 3.2-.6 3.5-.8.3-.2 2.2-.7 4.1-1 3.2-.5 9.9-1.8 16-3.2 7.3-1.6 16.8-3.6 19-4 1.4-.2 5.7-1.1 9.6-2 3.9-.8 7.7-1.6 8.5-1.8.8-.1 2.8-.5 4.4-.9 1.7-.4 4.1-.9 5.5-1.1 1.4-.3 6.9-1.4 12.4-2.5 5.4-1.2 10.8-2.3 12-2.6 1.1-.2 3.2-.6 4.6-1 1.4-.3 3.4-.7 4.5-.9 1.1-.2 6.7-1.4 12.5-2.6 5.8-1.2 11.2-2.3 12-2.5 12-2.5 38.4-7.9 57-11.9.8-.2 3.3-.7 5.5-1.1 2.2-.5 4.5-.9 5-1.1 1-.2 19.7-4.1 24.1-5 3.5-.7 21.7-4.5 23.9-5 1.1-.2 3.4-.7 5-.9 1.7-.3 4.4-1 6-1.4 5-1.5 5.6-1.3 19.4 6.4z"/></svg>