<svg xmlns="http://www.w3.org/2000/svg" width="18.938" height="16.969"><path d="M5.526 16.978a2.073 2.073 0 010-4.147h.007a2.073 2.073 0 01-.007 4.147zm.006-2.963a.884.884 0 10.628.258.887.887 0 00-.628-.258zm8.386 2.963a2.073 2.073 0 010-4.147 1.936 1.936 0 011.468.6 2.076 2.076 0 01-.667 3.383 2.1 2.1 0 01-.801.164zm.006-2.963a.978.978 0 00-.823.548.888.888 0 101.449-.291.9.9 0 00-.626-.257zm-11.279.164a.584.584 0 01-.25-.056.592.592 0 01-.286-.787 3.681 3.681 0 013.054-2.151L4.108 5.793a.592.592 0 111.163-.227l1.091 5.578h9.423l1.807-6.771H4.29A4.354 4.354 0 01.007.68.592.592 0 111.178.505a3.165 3.165 0 003.115 2.682h14.07a.594.594 0 01.573.745l-2.123 7.956a.594.594 0 01-.573.44H5.885a.043.043 0 00-.023 0 2.655 2.655 0 00-2.68 1.51.593.593 0 01-.537.34z" fill="#243f4d" fill-rule="evenodd"/></svg>