<svg xmlns="http://www.w3.org/2000/svg" width="18.938" height="16.969" viewBox="0 0 18.938 16.969">
  <defs>
    <style>
      .cls-1 {
        fill: #243f4d;
        fill-rule: evenodd;
      }
    </style>
  </defs>
  <path class="cls-1" d="M5.526,16.978a2.073,2.073,0,0,1,0-4.147H5.533A2.073,2.073,0,0,1,5.526,16.978Zm0.006-2.963h0a0.884,0.884,0,1,0,.628.258,0.887,0.887,0,0,0-.628-0.258Zm8.386,2.963a2.073,2.073,0,0,1,0-4.147h0a1.936,1.936,0,0,1,1.468.6,2.076,2.076,0,0,1-.667,3.383A2.1,2.1,0,0,1,13.918,16.978Zm0.006-2.963h0a0.978,0.978,0,0,0-.823.548,0.888,0.888,0,1,0,1.449-.291A0.9,0.9,0,0,0,13.924,14.015Zm-11.279.164a0.584,0.584,0,0,1-.25-0.056,0.592,0.592,0,0,1-.286-0.787,3.681,3.681,0,0,1,3.054-2.151L4.108,5.793a0.592,0.592,0,1,1,1.163-.227l1.091,5.578h9.423l1.807-6.771H4.29A4.354,4.354,0,0,1,.007.68,0.592,0.592,0,1,1,1.178.505,3.165,3.165,0,0,0,4.293,3.187h14.07a0.594,0.594,0,0,1,.573.745l-2.123,7.956a0.594,0.594,0,0,1-.573.44H5.885a0.043,0.043,0,0,0-.023,0,2.655,2.655,0,0,0-2.68,1.51A0.593,0.593,0,0,1,2.645,14.178Z"/>
</svg>
