<svg xmlns="http://www.w3.org/2000/svg" width="16" height="13pt" viewBox="0 0 12 13"><path d="M0 11.781C0 12.453.574 13 1.285 13h9.43c.71 0 1.285-.547 1.285-1.219V4.875H0zm8.57-4.976c0-.168.145-.305.325-.305h1.07c.176 0 .32.137.32.305V7.82a.314.314 0 01-.32.305h-1.07c-.18 0-.325-.137-.325-.305zm0 3.25c0-.168.145-.305.325-.305h1.07c.176 0 .32.137.32.305v1.015a.314.314 0 01-.32.305h-1.07c-.18 0-.325-.137-.325-.305zm-3.425-3.25c0-.168.144-.305.32-.305h1.07c.176 0 .32.137.32.305V7.82a.314.314 0 01-.32.305h-1.07a.314.314 0 01-.32-.305zm0 3.25c0-.168.144-.305.32-.305h1.07c.176 0 .32.137.32.305v1.015a.314.314 0 01-.32.305h-1.07a.314.314 0 01-.32-.305zm-3.43-3.25c0-.168.144-.305.32-.305h1.07c.18 0 .325.137.325.305V7.82c0 .168-.145.305-.325.305h-1.07a.314.314 0 01-.32-.305zm0 3.25c0-.168.144-.305.32-.305h1.07c.18 0 .325.137.325.305v1.015c0 .168-.145.305-.325.305h-1.07a.314.314 0 01-.32-.305zm9-8.43H9.43V.406C9.43.184 9.234 0 9 0h-.855a.419.419 0 00-.43.406v1.219h-3.43V.406A.419.419 0 003.855 0H3c-.234 0-.43.184-.43.406v1.219H1.285C.575 1.625 0 2.172 0 2.844v1.219h12v-1.22c0-.671-.574-1.218-1.285-1.218zm0 0" id="surface1"/></svg>