<svg xmlns="http://www.w3.org/2000/svg" width="20" height="20" viewBox="0 0 15 15"><path d="M7.5 14.164a.869.869 0 01-.578-.215c-.61-.531-1.192-1.031-1.707-1.469l-.004-.003c-1.512-1.286-2.816-2.399-3.723-3.493C.473 7.758 0 6.598 0 5.328c0-1.23.422-2.371 1.191-3.203a4.032 4.032 0 013-1.305 3.78 3.78 0 012.356.813c.351.273.672.605.953.996a4.83 4.83 0 01.953-.996A3.78 3.78 0 0110.81.82c1.16 0 2.226.465 3 1.305.77.832 1.191 1.973 1.191 3.203 0 1.27-.473 2.43-1.488 3.656-.907 1.094-2.211 2.207-3.723 3.493-.516.441-1.101.941-1.71 1.472a.869.869 0 01-.579.215zM4.191 1.7c-.91 0-1.746.363-2.355 1.024-.617.668-.957 1.593-.957 2.605 0 1.067.394 2.02 1.285 3.094.86 1.039 2.137 2.125 3.617 3.387l.004.004c.516.44 1.102.94 1.715 1.472.613-.535 1.2-1.035 1.719-1.476 1.48-1.262 2.758-2.348 3.617-3.387.89-1.074 1.285-2.027 1.285-3.094 0-1.012-.34-1.937-.957-2.605A3.167 3.167 0 0010.809 1.7c-.664 0-1.278.211-1.817.63a4.19 4.19 0 00-1.015 1.175.556.556 0 01-.954 0 4.209 4.209 0 00-1.015-1.176A2.907 2.907 0 004.19 1.7zm0 0" id="surface1"/></svg>