<svg xmlns="http://www.w3.org/2000/svg" width="20.031" height="20.031"><path d="M2.146 4.287a2.146 2.146 0 112.146-2.146 2.144 2.144 0 01-2.146 2.146zm0 7.869a2.146 2.146 0 112.146-2.15 2.145 2.145 0 01-2.146 2.15zm0 7.868a2.146 2.146 0 112.146-2.146 2.144 2.144 0 01-2.146 2.146zm7.868-15.737a2.146 2.146 0 112.146-2.146 2.144 2.144 0 01-2.146 2.146zm0 7.869a2.146 2.146 0 112.146-2.15 2.145 2.145 0 01-2.146 2.15zm0 7.868a2.146 2.146 0 112.146-2.146 2.144 2.144 0 01-2.146 2.146zm7.869-15.737a2.146 2.146 0 112.146-2.146 2.144 2.144 0 01-2.146 2.146zm0 7.869a2.146 2.146 0 112.146-2.15 2.145 2.145 0 01-2.146 2.15zm0 7.868a2.146 2.146 0 112.146-2.146 2.144 2.144 0 01-2.146 2.146z" fill="#fff" fill-rule="evenodd"/></svg>