<svg xmlns="http://www.w3.org/2000/svg" width="20.031" height="20.031" viewBox="0 0 20.031 20.031">
  <defs>
    <style>
      .cls-1 {
        fill: #fff;
        fill-rule: evenodd;
      }
    </style>
  </defs>
  <path class="cls-1" d="M2.146,4.881A2.146,2.146,0,1,1,4.292,2.735,2.144,2.144,0,0,1,2.146,4.881Zm0,7.869A2.146,2.146,0,1,1,4.292,10.6,2.145,2.145,0,0,1,2.146,12.75Zm0,7.868a2.146,2.146,0,1,1,2.146-2.146A2.144,2.144,0,0,1,2.146,20.618ZM10.014,4.881A2.146,2.146,0,1,1,12.16,2.735,2.144,2.144,0,0,1,10.014,4.881Zm0,7.869A2.146,2.146,0,1,1,12.16,10.6,2.145,2.145,0,0,1,10.014,12.75Zm0,7.868a2.146,2.146,0,1,1,2.146-2.146A2.144,2.144,0,0,1,10.014,20.618ZM17.883,4.881a2.146,2.146,0,1,1,2.146-2.146A2.144,2.144,0,0,1,17.883,4.881Zm0,7.869A2.146,2.146,0,1,1,20.029,10.6,2.145,2.145,0,0,1,17.883,12.75Zm0,7.868a2.146,2.146,0,1,1,2.146-2.146A2.144,2.144,0,0,1,17.883,20.618Z" transform="translate(0 -0.594)"/>
</svg>
