<svg xmlns="http://www.w3.org/2000/svg" width="15.281" height="15.281" viewBox="0 0 15.281 15.281">
  <defs>
    <style>
      .cls-1 {
        fill: #243f4d;
        fill-rule: evenodd;
      }
    </style>
  </defs>
  <path id="icon" class="cls-1" d="M3.7,6.076a0.613,0.613,0,0,1,.745.485,2.656,2.656,0,0,0,.78,1.489,3.044,3.044,0,0,0,1.494.777,0.634,0.634,0,0,1,.487.743,0.643,0.643,0,0,1-.714.515A4.117,4.117,0,0,1,3.215,6.818,0.608,0.608,0,0,1,3.7,6.076ZM6.98,0a6.257,6.257,0,0,1,5.711,8.861l2.336,2.036c1.7,1.746.745,3.266,0.293,3.717-0.421.454-1.993,1.414-3.731-.292l-2.059-2.35A6.261,6.261,0,1,1,6.98,0Zm5.546,13.517a1.355,1.355,0,0,0,1.881.226,1.312,1.312,0,0,0-.228-1.874l-2.161-1.88a6.269,6.269,0,0,1-1.363,1.34ZM6.98,11.2A4.948,4.948,0,1,0,2.015,6.253,4.958,4.958,0,0,0,6.98,11.2Z" transform="translate(-0.719)"/>
</svg>
