<svg xmlns="http://www.w3.org/2000/svg" width="15.281" height="15.281"><path id="icon" d="M3.7 6.076a.613.613 0 01.745.485 2.656 2.656 0 00.78 1.489 3.044 3.044 0 001.494.777.634.634 0 01.487.743.643.643 0 01-.714.515 4.117 4.117 0 01-3.277-3.267.608.608 0 01.485-.742zM6.98 0a6.257 6.257 0 015.711 8.861l2.336 2.036c1.7 1.746.745 3.266.293 3.717-.421.454-1.993 1.414-3.731-.292l-2.059-2.35A6.261 6.261 0 116.98 0zm5.546 13.517a1.355 1.355 0 001.881.226 1.312 1.312 0 00-.228-1.874l-2.161-1.88a6.269 6.269 0 01-1.363 1.34zM6.98 11.2a4.948 4.948 0 10-4.965-4.947A4.958 4.958 0 006.98 11.2z" transform="translate(-.719)" fill="#243f4d" fill-rule="evenodd"/></svg>