<svg xmlns="http://www.w3.org/2000/svg" width="24" height="24" viewBox="0 0 18 18"><g id="surface1"><path d="M12.77 0H5.23A5.233 5.233 0 000 5.23v7.54A5.233 5.233 0 005.23 18h7.54A5.233 5.233 0 0018 12.77V5.23A5.233 5.233 0 0012.77 0zm3.824 12.77a3.828 3.828 0 01-3.824 3.824H5.23a3.828 3.828 0 01-3.824-3.824V5.23A3.828 3.828 0 015.23 1.406h7.54a3.828 3.828 0 013.824 3.824zm0 0"/><path d="M9 4.148A4.856 4.856 0 004.148 9 4.856 4.856 0 009 13.852 4.856 4.856 0 0013.852 9 4.856 4.856 0 009 4.148zm0 8.297A3.45 3.45 0 015.555 9 3.45 3.45 0 019 5.555 3.45 3.45 0 0112.445 9 3.45 3.45 0 019 12.445zm5.625-8.367a.705.705 0 01-.703.703.705.705 0 01-.703-.703c0-.387.316-.703.703-.703.387 0 .703.316.703.703zm0 0"/></g></svg>